<svg width="66" height="48" viewBox="0 0 66 48" fill="none" xmlns="http://www.w3.org/2000/svg">
<path d="M18.83 35.1644C19.1242 35.0885 19.352 35.1739 19.5134 35.4112C19.6937 35.639 19.7886 35.9901 19.7886 36.4742C19.7886 37.3853 19.5703 38.1446 19.1337 38.752C18.0897 40.1946 16.9983 41.3905 15.8783 42.3301C14.7869 43.2317 13.5341 43.6968 12.1199 43.7063C10.9525 43.6493 10.0699 43.2317 9.48145 42.4914C8.88352 41.7037 8.5893 40.6692 8.5893 39.3879C8.5893 38.752 8.75065 37.6416 9.07334 36.0566C9.36756 34.6709 9.51941 33.6933 9.51941 33.1524C9.51941 32.7822 9.38654 32.5829 9.13978 32.5449C8.84556 32.488 8.41846 32.7917 7.86799 33.4561C7.32701 34.0635 6.77653 34.9177 6.22606 35.9996C5.68507 37.0721 5.239 38.23 4.89733 39.4828C4.46074 41.1342 3.38827 41.5423 1.6799 40.5933C0.987058 40.1567 0.531493 39.6062 0.30371 38.9703C0.1044 38.3249 0 37.3568 0 36.0756C0 35.3448 0.00949096 34.7753 0.0284728 34.3577L0.0664367 31.6433C0.0664367 30.7606 0.0854185 29.8875 0.132873 29.0238C0.180328 28.1601 0.246764 27.3059 0.332183 26.4517C0.417601 25.5976 0.531493 24.7434 0.664366 23.9082C0.797239 23.0635 0.949094 22.2188 1.12942 21.3836C1.30975 20.5484 1.50906 19.7606 1.73684 19.0203C1.96462 18.28 2.2019 17.5872 2.46764 16.9418C2.99914 15.6321 3.61605 14.4932 4.30889 13.5346C5.02071 12.5285 5.79896 11.8452 6.64366 11.4655C7.48835 11.0479 8.39948 10.9341 9.37705 11.1144C10.4305 11.2473 11.2752 11.7788 11.9111 12.7184C12.5755 13.62 12.9077 14.7874 12.9077 16.2205C12.9077 17.3784 12.7368 18.5553 12.3952 19.7511C12.063 20.9375 11.56 22.1429 10.8861 23.3387C10.2123 24.5061 9.32959 25.7304 8.22865 26.9643C7.68766 27.5622 7.08024 28.1506 6.42537 28.7391C5.77998 29.2895 5.06816 29.8305 4.30889 30.343C4.24245 31.4914 4.20449 32.7063 4.20449 33.9591C4.58412 33.1524 4.98274 32.4405 5.40035 31.8141C5.81795 31.1782 6.25453 30.6278 6.71009 30.1627C7.64021 29.1851 8.56083 28.5113 9.44349 28.1411C10.3641 27.733 11.1898 27.5432 11.9491 27.5812C13.4297 27.5717 14.17 28.2835 14.17 29.7641C14.17 30.6562 13.9232 32.2792 13.4202 34.6329C12.9836 36.626 12.7653 37.9358 12.7653 38.5812C12.7653 39.4923 13.0975 39.9479 13.7619 39.9194C14.2174 39.9004 14.7489 39.5777 15.3658 38.9703C16.0112 38.3249 16.8559 37.2809 17.8999 35.8383C18.1752 35.4681 18.4884 35.2404 18.83 35.1644ZM8.65574 14.3793C8.24763 14.2939 7.79206 14.7874 7.28904 15.8504C6.78602 16.8659 6.30198 18.3085 5.81795 20.1498C5.59016 21.0609 5.38136 22.0195 5.19154 23.035C5.00173 24.0505 4.84038 25.104 4.68852 26.224C5.40035 25.6735 6.03624 25.0281 6.62468 24.3068C7.20362 23.5665 7.72563 22.7598 8.18119 21.8771C8.64625 20.9945 8.99741 20.1213 9.23468 19.2766C9.46247 18.4224 9.58585 17.5967 9.58585 16.79C9.58585 16.0592 9.50043 15.4897 9.34858 15.0816C9.18723 14.664 8.95945 14.4362 8.65574 14.3793ZM32.2787 30.2766C32.5824 30.1437 32.8102 30.1817 32.962 30.3905C33.1519 30.5898 33.2373 30.922 33.2373 31.406C33.2373 32.3172 33.019 33.1144 32.5919 33.8072C31.7472 35.1929 30.5513 36.664 28.9948 38.1826C28.2261 38.9323 27.4383 39.5872 26.6126 40.1282C25.7964 40.6692 24.9422 41.0963 24.069 41.419C22.8637 41.8271 21.8007 42.0074 20.8706 41.9505C19.9405 41.884 19.1432 41.5898 18.4884 41.0963C17.824 40.5743 17.3305 39.9004 16.9983 39.0652C16.6661 38.23 16.4953 37.2524 16.4953 36.123C16.4953 34.5475 16.8274 33.029 17.4918 31.5674C18.1562 30.0678 19.0673 28.7865 20.2347 27.6951C21.4211 26.5561 22.7498 25.7399 24.2399 25.2274C25.5591 24.7434 26.6221 24.7244 27.4193 25.2084C28.2166 25.6545 28.6152 26.5561 28.6152 27.9039C28.6152 29.4794 28.0457 31.0738 26.9068 32.6683C26.3469 33.4561 25.5876 34.2438 24.6385 35.0505C23.6894 35.8288 22.5315 36.6071 21.1933 37.3568C21.7627 38.23 22.8447 38.4103 24.4392 37.8599C25.4642 37.4802 26.6316 36.6735 27.9318 35.4397C29.2606 34.1584 30.3995 32.7253 31.3581 31.1498C31.6333 30.7132 31.937 30.419 32.2787 30.2766ZM23.6514 28.7865C22.8067 29.0712 22.0949 29.802 21.497 30.9599C20.9275 32.1083 20.6428 33.3801 20.6428 34.7658V34.8417C21.9905 34.1204 23.0535 33.2947 23.8223 32.3931C24.6005 31.4725 24.9896 30.5898 24.9896 29.7451C24.9896 29.318 24.8663 29.0143 24.61 28.8624C24.3822 28.6726 24.069 28.6442 23.6514 28.7865ZM43.44 25.9487C43.7343 25.8633 43.9715 25.9297 44.1234 26.1575C44.3132 26.3853 44.3986 26.7365 44.3986 27.211C44.3986 28.1316 44.1803 28.8909 43.7532 29.5173C42.7662 31.0264 41.6937 32.3646 40.5358 33.551C39.3874 34.7468 38.0871 35.639 36.6255 36.2274C35.629 36.645 34.7463 36.7874 34.006 36.6545C33.2563 36.5216 32.6393 36.104 32.1458 35.4017C31.6618 34.6994 31.3106 33.8072 31.0639 32.7253C30.8266 31.6433 30.7032 30.381 30.7032 28.9384C30.7032 27.5432 30.7981 26.0152 30.9689 24.3542C31.1493 22.6933 31.415 20.8901 31.7662 18.9634C31.9465 17.9953 32.1553 17.0462 32.3736 16.1161C32.6014 15.1955 32.8481 14.2939 33.1139 13.4112C33.6454 11.6554 34.2528 9.99445 34.9551 8.41896C35.6575 6.83397 36.4357 5.55269 37.2709 4.57512C38.1061 3.59756 39.0173 2.9237 39.9853 2.56305C41.0768 2.16443 41.9405 2.39221 42.5479 3.21792C43.1933 4.02465 43.5065 5.37236 43.5065 7.27055C43.5065 8.62776 43.3261 10.1463 42.9465 11.8357C42.7567 12.6899 42.5194 13.5725 42.2442 14.5027C41.9594 15.4423 41.6273 16.4198 41.2476 17.4448C40.8775 18.4699 40.4599 19.5139 40.0233 20.5674C39.5772 21.6209 39.1027 22.6933 38.5902 23.7753C38.0777 24.8668 37.5367 25.9677 36.9577 27.0876C36.3788 28.2076 35.7714 29.3465 35.126 30.4949C35.2873 31.3586 35.5436 31.928 35.9137 32.1843C36.2744 32.4121 36.7584 32.4121 37.3469 32.1748C38.2865 31.7951 39.1027 31.2162 39.8145 30.419C40.5168 29.6122 41.4185 28.3784 42.5194 26.708C42.7947 26.3094 43.0984 26.0531 43.44 25.9487ZM39.2355 6.23604C38.7041 6.43535 38.1156 7.61223 37.4513 9.77616C37.1191 10.8581 36.8059 12.0445 36.5211 13.3353C36.2269 14.6355 35.9517 16.0402 35.7049 17.5492C35.4582 19.0583 35.2588 20.5104 35.126 21.9151C34.9836 23.3197 34.9077 24.6769 34.8792 25.9772C35.6954 24.2973 36.4167 22.6554 37.0621 21.0514C37.7075 19.4569 38.277 17.9004 38.7515 16.3819C39.2356 14.8443 39.5867 13.4302 39.8335 12.1109C40.0708 10.7917 40.1941 9.58634 40.1941 8.4759C40.1941 6.73906 39.8714 5.98927 39.2355 6.23604ZM54.6014 24.658C54.8956 24.6959 55.1234 24.8573 55.2847 25.1515C55.4745 25.4552 55.56 25.8443 55.56 26.3284C55.56 27.2395 55.3417 27.9134 54.9146 28.3594C53.9275 29.4604 52.855 30.4 51.6972 31.1687C50.5487 31.9945 49.2485 32.507 47.7869 32.7158C46.7903 32.9056 45.9077 32.8676 45.1579 32.5924C44.4176 32.3361 43.7912 31.8236 43.3072 31.0549C42.8231 30.2861 42.4625 29.356 42.2252 28.255C41.9879 27.1541 41.8645 25.8728 41.8645 24.4207C41.8645 23.035 41.9594 21.5165 42.1303 19.8745C42.3106 18.2231 42.5764 16.4578 42.9275 14.5691C43.1079 13.62 43.3167 12.6994 43.5349 11.8072C43.7627 10.9151 44.0095 10.0514 44.2752 9.20671C44.8067 7.5363 45.4142 5.97978 46.1165 4.53716C46.8188 3.10403 47.5971 2.00308 48.4323 1.22482C49.2675 0.475038 50.1786 0.0669277 51.1467 0.000491057C52.2381 -0.0184908 53.0923 0.513002 53.7092 1.5665C54.3546 2.62948 54.6678 4.11007 54.6678 6.00826C54.6678 7.36546 54.4875 8.80809 54.1078 10.3456C53.918 11.1239 53.6808 11.9211 53.396 12.7373C53.1208 13.5725 52.7886 14.4267 52.409 15.3189C52.0388 16.211 51.6212 17.1127 51.1846 18.0143C50.7386 18.9349 50.264 19.8555 49.7515 20.7857C49.239 21.7348 48.698 22.6838 48.1191 23.6519C47.5401 24.639 46.9327 25.6355 46.2873 26.6511C46.4392 27.5432 46.7049 28.1696 47.0751 28.5018C47.4357 28.8245 47.9198 28.9289 48.5082 28.8435C49.4478 28.7201 50.264 28.3784 50.9758 27.809C51.6782 27.23 52.5798 26.3094 53.6808 25.0566C53.956 24.7529 54.2597 24.62 54.6014 24.658ZM50.3874 3.43621C49.8654 3.48367 49.277 4.48971 48.6126 6.47331C48.2804 7.46986 47.9672 8.5803 47.6825 9.80463C47.3883 11.029 47.113 12.3672 46.8663 13.8193C46.61 15.2809 46.4202 16.6951 46.2873 18.0712C46.145 19.4474 46.069 20.7857 46.0406 22.0764C46.8568 20.5674 47.5781 19.0963 48.2235 17.6536C48.8689 16.23 49.4288 14.8253 49.9129 13.4397C50.3874 12.054 50.7481 10.7347 50.9948 9.50093C51.2321 8.25761 51.346 7.09022 51.346 5.97978C51.346 4.25243 51.0328 3.39825 50.3874 3.43621ZM58.5781 33.3137C57.2304 32.9341 56.0725 32.3551 55.1139 31.5294C54.1838 30.7417 53.472 29.802 52.9974 28.6821C52.5134 27.5717 52.2761 26.3948 52.2761 25.142C52.2761 23.4052 52.5988 21.8676 53.2347 20.5389C53.8991 19.2102 54.7817 18.2421 55.9016 17.6536C57.0216 17.1127 58.2744 17.0652 59.6695 17.5492C61.0173 18.1282 62.1657 19.0583 63.1242 20.3016C64.0828 21.5734 64.8041 22.9591 65.2882 24.4112C65.7627 25.8823 66 27.249 66 28.5018C66 30.2386 65.6678 31.5294 65.0129 32.3931C64.3486 33.2568 63.4469 33.7218 62.308 33.8167C61.1881 33.997 59.9448 33.8167 58.5781 33.3137ZM58.9482 29.7451C59.7265 30.0298 60.3814 29.878 60.9034 29.2706C61.4538 28.6916 61.7196 27.6002 61.7196 25.9772C61.7196 24.7244 61.4918 23.6614 61.0362 22.7977C60.5807 21.9435 60.0302 21.3931 59.3943 21.1463C58.5781 20.8521 57.8852 21.0704 57.3443 21.7632C56.8128 22.4656 56.5565 23.6329 56.5565 25.2844C56.5565 26.5846 56.7843 27.5907 57.2399 28.312C57.6954 29.0523 58.2649 29.5268 58.9482 29.7451Z" fill="#01D5A2"/>
</svg>
